<?xml version="1.0" encoding="UTF-8" standalone="no"?>
<svg
   xmlns:dc="http://purl.org/dc/elements/1.1/"
   xmlns:cc="http://creativecommons.org/ns#"
   xmlns:rdf="http://www.w3.org/1999/02/22-rdf-syntax-ns#"
   xmlns:svg="http://www.w3.org/2000/svg"
   xmlns="http://www.w3.org/2000/svg"
   xmlns:sodipodi="http://sodipodi.sourceforge.net/DTD/sodipodi-0.dtd"
   xmlns:inkscape="http://www.inkscape.org/namespaces/inkscape"
   inkscape:version="1.0beta2 (2b71d25, 2019-12-03)"
   inkscape:export-ydpi="96"
   inkscape:export-xdpi="96"
   inkscape:export-filename="/home/jacob/Desktop/OSKHFP1.eps.png"
   sodipodi:docname="skmultiflow-logo-250px-websafe.svg"
   viewBox="0 0 249.99997 143.25969"
   height="143.25969"
   width="250"
   xml:space="preserve"
   id="svg2"
   version="1.1"><metadata
     id="metadata8"><rdf:RDF><cc:Work
         rdf:about=""><dc:format>image/svg+xml</dc:format><dc:type
           rdf:resource="http://purl.org/dc/dcmitype/StillImage" /><dc:title></dc:title></cc:Work></rdf:RDF></metadata><defs
     id="defs6"><radialGradient
       id="radialGradient18"
       spreadMethod="pad"
       gradientTransform="matrix(3.1063977,1.6492457e-7,1.6492492e-7,-3.1063977,6000,6000)"
       gradientUnits="userSpaceOnUse"
       r="1"
       cy="4.5474735e-13"
       cx="2.2737368e-13"
       fy="4.5474735e-13"
       fx="2.2737368e-13"><stop
         id="stop14"
         offset="0"
         style="stop-opacity:1;stop-color:#ffffff" /><stop
         id="stop16"
         offset="1"
         style="stop-opacity:1;stop-color:#f2fbfe" /></radialGradient></defs><sodipodi:namedview
     inkscape:document-rotation="0"
     fit-margin-bottom="0"
     fit-margin-right="0"
     fit-margin-left="0"
     fit-margin-top="0"
     inkscape:current-layer="text163"
     inkscape:window-maximized="1"
     inkscape:window-y="23"
     inkscape:window-x="0"
     inkscape:cy="75.336811"
     inkscape:cx="143.13782"
     inkscape:zoom="2.3260626"
     inkscape:snap-global="true"
     showgrid="false"
     id="namedview4"
     inkscape:window-height="972"
     inkscape:window-width="1920"
     inkscape:pageshadow="2"
     inkscape:pageopacity="0"
     guidetolerance="10"
     gridtolerance="10"
     objecttolerance="10"
     borderopacity="1"
     bordercolor="#666666"
     pagecolor="#ffffff" /><g
     transform="matrix(1.3333333,0,0,-1.3333333,700.00062,1330.579)"
     inkscape:label="ink_ext_XXXXXX"
     inkscape:groupmode="layer"
     id="g10"><g
       transform="scale(0.1)"
       id="g12"><g
         id="g4776"><g
           id="g887"><g
             id="g4834"
             transform="translate(-11016.018,1785.222)"><g
   id="g134"><g
     style="opacity:0.86"
     id="g196"
     transform="matrix(0.45985409,0,0,0.45985409,5655.44,2974.6756)"
     inkscape:export-xdpi="96"
     inkscape:export-ydpi="96"><path
       d="m 2280.25,10366.975 213.3258,173.818 c 318.3588,310.996 641.2889,489.945 978.1772,475.96 297.3697,-12.342 536.1742,-249.977 531.8371,-547.575 -4.3372,-297.593 -250.0039,-537.7959 -547.5749,-531.8316 -541.0229,10.8347 -920.9236,457.2076 -1105.3097,633.0826 -350.5474,369.365 -702.7436,712.381 -1239.0104,720.201 -427.29369,6.225 -778.73359,-335.109 -784.95899,-762.403 -11.2538,-771.7295 1243.84819,-1125.591 1944.36069,50.642 -314.7401,-319.572 -829.0163,-606.722 -1178.5515,-601.623 -297.59279,4.3371 -536.17419,249.977 -531.83709,547.569 4.3372,297.599 249.9821,536.18 547.57489,531.837 897.6107,-13.082 1194.0172,-1324.0388 2344.3201,-1353.2833 427.2012,-10.8564 778.7336,335.1093 784.959,762.4023 11.0688,759.187 -1151.6687,1250.063 -1957.3122,-98.796"
       style="fill:#3fb9a9;fill-opacity:1;fill-rule:nonzero;stroke:none;stroke-width:0.544185"
       id="path22"
       inkscape:connector-curvature="0" /><path
       d="m 567.65201,10603.7 c 0,0 -164.5179,-481.483 293.5822,-665.9455 355.54839,-143.1695 601.35659,60.1759 866.34729,317.5425 0,0 -982.85719,-549.0441 -1159.92949,348.403"
       style="fill:#f9da06;fill-opacity:1;fill-rule:nonzero;stroke:none;stroke-width:0.544185"
       id="path24"
       inkscape:connector-curvature="0" /><path
       d="m 3109.5111,11095.959 c 0,0 212.2701,307.448 655.367,155.99 552.9949,-189.022 598.1894,-639.591 527.07,-928.814 0,0 -110.6709,870.587 -1182.437,772.824"
       style="fill:#f9da06;fill-opacity:1;fill-rule:nonzero;stroke:none;stroke-width:0.544185"
       id="path26"
       inkscape:connector-curvature="0" /><path
       d="m 2483.8457,9990.2901 c 0,0 1144.0992,-415.7897 1496.2247,94.2909 0,0 -139.0228,-571.949 -758.1416,-486.0168 -438.134,60.8127 -738.0831,391.7259 -738.0831,391.7259"
       style="fill:#f46a17;fill-opacity:1;fill-rule:nonzero;stroke:none;stroke-width:0.544185"
       id="path28"
       inkscape:connector-curvature="0" /><path
       d="m 977.73871,11209.585 c 0,0 294.05559,260.125 697.69359,72.828 403.638,-187.303 545.8879,-577.859 545.8879,-577.859 0,0 -551.2046,462.279 -1243.58149,505.031"
       style="fill:#f46a17;fill-opacity:1;fill-rule:nonzero;stroke:none;stroke-width:0.544185"
       id="path30"
       inkscape:connector-curvature="0" /><path
       d="m 279.96341,10323.57 c 0,0 -275.1941965,845.778 626.9714,1006.78 0,0 -651.4271,-557.321 -626.9714,-1006.78"
       style="fill:#f03697;fill-opacity:1;fill-rule:nonzero;stroke:none;stroke-width:0.544185"
       id="path32"
       inkscape:connector-curvature="0" /><path
       d="m 2490.7133,10461.87 c 0,0 154.222,-568.3468 866.7991,-517.6778 0,0 -649.43,246.0148 -866.7991,517.6778"
       style="fill:#f03697;fill-opacity:1;fill-rule:nonzero;stroke:none;stroke-width:0.544185"
       id="path34"
       inkscape:connector-curvature="0" /><path
       d="m 4092.1126,10552.318 c 0,0 95.1452,-441.725 -159.8053,-757.3031 0,0 572.7707,341.0191 159.8053,757.3031"
       style="fill:#f03697;fill-opacity:1;fill-rule:nonzero;stroke:none;stroke-width:0.544185"
       id="path36"
       inkscape:connector-curvature="0" /><path
       d="m 2023.2316,10500.752 c 0,0 -64.1812,574.892 -823.15,529.665 0,0 545.4362,-167.005 823.15,-529.665"
       style="fill:#f03697;fill-opacity:1;fill-rule:nonzero;stroke:none;stroke-width:0.544185"
       id="path38"
       inkscape:connector-curvature="0" /><path
       d="m 274.45081,10255.101 c 0,0 203.2203,-343.8429 813.88789,-418.6193 0,0 -733.30499,-275.9396 -813.88789,418.6193"
       style="fill:#2c65ad;fill-opacity:1;fill-rule:nonzero;stroke:none;stroke-width:0.544185"
       id="path40"
       inkscape:connector-curvature="0" /><path
       d="m 2643.4932,10737.205 c 0,0 85.9485,420.535 577.2601,522.679 0,0 -344.7355,-252.132 -577.2601,-522.679"
       style="fill:#2c65ad;fill-opacity:1;fill-rule:nonzero;stroke:none;stroke-width:0.544185"
       id="path42"
       inkscape:connector-curvature="0" /><path
       d="m 3610.9772,10899.073 c 0,0 505.6781,-409.575 140.0296,-847.432 0,0 372.3093,177.328 276.1574,525.704 -53.4118,193.513 -278.3396,320.095 -416.187,321.728"
       style="fill:#2c65ad;fill-opacity:1;fill-rule:nonzero;stroke:none;stroke-width:0.544185"
       id="path44"
       inkscape:connector-curvature="0" /><path
       d="m 630.70131,10550.67 c 0,0 -115.2148,558.621 476.42269,574.484 0,0 -368.29329,-126.153 -476.42269,-574.484"
       style="fill:#2c65ad;fill-opacity:1;fill-rule:nonzero;stroke:none;stroke-width:0.544185"
       id="path46"
       inkscape:connector-curvature="0" /><path
       d="m 1124.761,9752.4977 c 0,0 565.7996,196.8098 756.1282,441.4643 0,0 -59.2835,-582.0761 -756.1282,-441.4643"
       style="fill:#f46a17;fill-opacity:1;fill-rule:nonzero;stroke:none;stroke-width:0.544185"
       id="path48"
       inkscape:connector-curvature="0" /><path
       d="m 2191.9995,10379.703 c 0,0 82.8086,-386.36 636.9355,-361.79 0,0 -380.7334,150.587 -636.9355,361.79"
       style="fill:#f9da06;fill-opacity:1;fill-rule:nonzero;stroke:none;stroke-width:0.544185"
       id="path50"
       inkscape:connector-curvature="0" /></g><g
     aria-label="scikit-multiflow"
     transform="scale(1,-1)"
     id="text163"
     style="font-style:normal;font-weight:normal;font-size:305.857px;line-height:1.25;font-family:sans-serif;letter-spacing:0px;word-spacing:0px;opacity:0.86;fill:#000000;fill-opacity:1;stroke:none;stroke-width:1.9116"><path
       d="m 5876.4479,-7119.6735 c 25.692,0 52.9133,-13.4577 53.2191,-42.2082 0,-12.2343 -5.5054,-20.1866 -12.8459,-25.9979 -7.0348,-5.5054 -15.5988,-8.564 -23.8569,-11.9284 -8.564,-3.3644 -17.7397,-7.0347 -24.4686,-10.0933 -7.0347,-3.0585 -11.6225,-7.3405 -11.6225,-14.987 0.3058,-14.3753 14.3753,-21.1041 27.2213,-21.1041 9.7874,0.3059 19.2689,3.0586 29.3622,8.8698 l 8.2582,-13.1518 c -12.2343,-6.7289 -25.0803,-11.3167 -38.8439,-11.3167 -23.8568,0 -46.7961,14.0694 -46.7961,39.7614 0,12.5401 5.5054,20.1866 12.846,25.3861 7.0347,5.5055 15.5987,8.564 23.8568,11.6226 4.282,1.2234 8.564,3.0586 12.5402,4.5878 10.0933,3.9762 22.0217,7.9523 22.3275,21.1042 0.6118,16.8221 -16.8221,23.551 -31.5032,23.551 -11.9285,-0.3059 -25.3862,-4.8937 -34.5619,-11.9285 l -7.9523,12.846 c 11.6226,8.8699 27.2213,14.987 42.82,14.987 z"
       style="font-style:normal;font-variant:normal;font-weight:normal;font-stretch:normal;font-family:Flux;-inkscape-font-specification:Flux;stroke-width:1.9116"
       id="path68" /><path
       d="m 6005.8111,-7120.591 c 19.5748,0 36.0911,-5.5055 49.243,-14.0695 l -5.8113,-11.6225 c -12.2343,5.8113 -22.6334,11.0108 -37.0087,10.705 -25.3861,-0.3059 -38.2321,-29.0564 -38.2321,-53.2191 0,-25.3862 11.9284,-55.666 36.0911,-56.8894 10.3991,-0.6118 22.9393,3.0585 32.115,7.3405 l 6.423,-11.9284 c -21.1042,-13.1519 -49.5489,-14.0694 -68.2061,-1.2234 -18.6573,12.846 -29.0564,37.6204 -29.0564,62.7007 0,33.6442 20.1865,67.9002 54.4425,68.2061 z"
       style="font-style:normal;font-variant:normal;font-weight:normal;font-stretch:normal;font-family:Flux;-inkscape-font-specification:Flux;stroke-width:1.9116"
       id="path70" /><path
       d="m 6086.3566,-7123.3437 h 22.0217 v -137.3298 l -22.0217,7.3405 z m -3.6703,-180.4557 c 0,7.9523 6.423,14.3753 14.3753,14.3753 8.2582,0 14.6812,-6.423 14.6812,-14.3753 0,-8.2581 -6.423,-14.6811 -14.3753,-14.6811 -8.2582,0 -14.6812,6.423 -14.6812,14.3753 z"
       style="font-style:normal;font-variant:normal;font-weight:normal;font-stretch:normal;font-family:Flux;-inkscape-font-specification:Flux;stroke-width:1.9116"
       id="path72" /><path
       d="m 6256.308,-7123.3437 -56.2777,-87.4752 44.3493,-40.0672 -11.0109,-10.3992 -62.7007,56.8894 v -132.1302 l -22.3275,7.6464 v 205.536 h 22.3275 v -60.5597 l 12.5402,-11.3167 46.7961,71.8764 z"
       style="font-style:normal;font-variant:normal;font-weight:normal;font-stretch:normal;font-family:Flux;-inkscape-font-specification:Flux;stroke-width:1.9116"
       id="path74" /><path
       d="m 6279.3094,-7123.3437 h 22.0217 v -137.3298 l -22.0217,7.3405 z m -3.6703,-180.4557 c 0,7.9523 6.423,14.3753 14.3753,14.3753 8.2581,0 14.6811,-6.423 14.6811,-14.3753 0,-8.2581 -6.423,-14.6811 -14.3753,-14.6811 -8.2581,0 -14.6811,6.423 -14.6811,14.3753 z"
       style="font-style:normal;font-variant:normal;font-weight:normal;font-stretch:normal;font-family:Flux;-inkscape-font-specification:Flux;stroke-width:1.9116"
       id="path76" /><path
       d="m 6347.1045,-7242.9338 v 87.7809 c 0,22.9393 17.7397,36.397 47.4078,33.6443 v -11.6226 c -15.5987,-0.6117 -25.0802,-4.8937 -25.0802,-22.6334 v -87.1692 h 25.0802 v -14.3753 h -25.0802 v -45.2668 l -22.3276,7.9522 v 37.3146 h -15.2928 v 14.3753 z"
       style="font-style:normal;font-variant:normal;font-weight:normal;font-stretch:normal;font-family:Flux;-inkscape-font-specification:Flux;stroke-width:1.9116"
       id="path78" /><path
       d="m 6428.5676,-7193.385 h 58.4186 v -23.2451 h -49.2429 -9.1757 z"
       style="font-style:normal;font-variant:normal;font-weight:normal;font-stretch:normal;font-family:Flux;-inkscape-font-specification:Flux;stroke-width:1.9116"
       id="path80" /><path
       d="m 6700.4983,-7224.2766 c 0,-22.3275 -21.1041,-36.3969 -41.2906,-36.3969 -17.7398,0.3058 -30.2799,4.8937 -43.7376,13.1518 -7.9523,-8.564 -20.1866,-13.1518 -32.4208,-13.1518 -25.0803,0.3058 -37.3146,7.9522 -56.8894,22.3275 v 115.0023 h 22.3275 v -112.2496 c 3.3644,-3.6703 12.5402,-9.4815 20.7983,-9.7874 22.9393,-1.5293 32.7267,10.3991 32.7267,30.8916 v 91.1454 h 22.3276 v -102.4621 c 0,-3.3645 -0.3059,-7.3406 -1.2235,-10.0933 5.1996,-3.9762 14.6812,-9.4816 22.6334,-9.7874 22.3276,-0.9176 32.115,10.7049 32.115,31.1974 l 0.3059,91.1454 h 22.3275 z"
       style="font-style:normal;font-variant:normal;font-weight:normal;font-stretch:normal;font-family:Flux;-inkscape-font-specification:Flux;stroke-width:1.9116"
       id="path82" /><path
       d="m 6736.1164,-7253.0271 v 93.5922 c 0,26.6096 23.2451,38.538 43.4317,38.538 26.3037,0 48.0195,-8.564 66.6768,-22.0217 v -115.3081 h -22.3276 v 112.2495 c -7.3405,4.8937 -18.3514,10.3992 -30.2798,10.705 -19.5749,0.3059 -34.5619,-11.3167 -34.5619,-31.8091 v -93.5922 z"
       style="font-style:normal;font-variant:normal;font-weight:normal;font-stretch:normal;font-family:Flux;-inkscape-font-specification:Flux;stroke-width:1.9116"
       id="path84" /><path
       d="m 6929.0643,-7121.2028 v -11.6225 c -15.5987,-0.6117 -25.0803,-4.8937 -25.0803,-22.6334 v -181.0674 l -21.7158,7.0347 v 174.6444 c 0,22.9393 17.128,36.397 46.7961,33.6442 z"
       style="font-style:normal;font-variant:normal;font-weight:normal;font-stretch:normal;font-family:Flux;-inkscape-font-specification:Flux;stroke-width:1.9116"
       id="path86" /><path
       d="m 6957.0264,-7242.9338 v 87.7809 c 0,22.9393 17.7397,36.397 47.4078,33.6443 v -11.6226 c -15.5987,-0.6117 -25.0803,-4.8937 -25.0803,-22.6334 v -87.1692 h 25.0803 v -14.3753 h -25.0803 v -45.2668 l -22.3275,7.9522 v 37.3146 h -15.2929 v 14.3753 z"
       style="font-style:normal;font-variant:normal;font-weight:normal;font-stretch:normal;font-family:Flux;-inkscape-font-specification:Flux;stroke-width:1.9116"
       id="path88" /><path
       d="m 7042.1597,-7123.3437 h 22.0217 v -137.3298 l -22.0217,7.3405 z m -3.6703,-180.4557 c 0,7.9523 6.423,14.3753 14.3753,14.3753 8.2582,0 14.6812,-6.423 14.6812,-14.3753 0,-8.2581 -6.423,-14.6811 -14.3753,-14.6811 -8.2582,0 -14.6812,6.423 -14.6812,14.3753 z"
       style="font-style:normal;font-variant:normal;font-weight:normal;font-stretch:normal;font-family:Flux;-inkscape-font-specification:Flux;stroke-width:1.9116"
       id="path90" /><path
       d="m 7166.5384,-7338.3612 c 6.423,0 11.0108,1.2234 16.2104,3.0586 l -4.8937,13.4577 c -0.9176,-0.3059 -1.8352,-0.6118 -2.7527,-0.9176 -41.2907,-7.0347 -44.961,25.692 -44.961,48.9371 l -0.3059,16.8221 h 30.8916 v 15.5988 h -30.8916 v 118.0608 h -22.3275 v -118.0608 h -14.3753 v -15.5988 h 14.3753 v -15.2928 c 0,-46.1844 22.9392,-66.0651 58.7245,-66.0651 z"
       style="font-style:normal;font-variant:normal;font-weight:normal;font-stretch:normal;font-family:Flux;-inkscape-font-specification:Flux;stroke-width:1.9116"
       id="path92" /><path
       d="m 7235.5186,-7121.2028 v -11.6225 c -15.5987,-0.6117 -25.0802,-4.8937 -25.0802,-22.6334 v -181.0674 l -21.7159,7.0347 v 174.6444 c 0,22.9393 17.128,36.397 46.7961,33.6442 z"
       style="font-style:normal;font-variant:normal;font-weight:normal;font-stretch:normal;font-family:Flux;-inkscape-font-specification:Flux;stroke-width:1.9116"
       id="path94" /><path
       d="m 7251.2464,-7192.7733 c 0,37.0087 19.5749,71.8764 60.8656,72.1823 41.5965,-0.3059 61.7831,-35.1736 61.7831,-72.1823 -0.3059,-36.0911 -22.9393,-67.5944 -61.4773,-67.9002 -38.2321,0.3058 -61.1714,31.8091 -61.1714,67.9002 z m 24.1627,0 c 0,-24.1627 6.1172,-50.7722 36.7029,-52.6074 28.7505,1.5293 37.3145,28.4447 37.3145,52.6074 0,25.692 -5.5054,57.5011 -36.7028,58.4187 -28.7506,-0.3059 -37.0087,-32.7267 -37.0087,-58.4187 z"
       style="font-style:normal;font-variant:normal;font-weight:normal;font-stretch:normal;font-family:Flux;-inkscape-font-specification:Flux;stroke-width:1.9116"
       id="path96" /><path
       d="m 7537.0029,-7127.3199 36.397,-128.4599 -13.7636,-4.8937 -29.3623,104.2972 -34.5618,-104.2972 -20.4924,7.3405 -27.2213,96.9567 -34.256,-104.2972 -20.4924,7.3405 43.1258,132.4361 18.3514,-6.423 28.7506,-100.3211 35.1736,106.7441 z"
       style="font-style:normal;font-variant:normal;font-weight:normal;font-stretch:normal;font-family:Flux;-inkscape-font-specification:Flux;stroke-width:1.9116"
       id="path98" /></g></g>

</g><rect
             style="opacity:0.24;fill:none;fill-opacity:1;stroke:none;stroke-width:22.3654;stroke-linecap:round;stroke-linejoin:miter;stroke-miterlimit:4;stroke-dasharray:none;stroke-dashoffset:0;stroke-opacity:1"
             id="rect844"
             width="7575"
             height="7575"
             x="-8100.0044"
             y="-13229.619"
             transform="scale(1,-1)"
             ry="0" /></g></g><flowRoot
         style="font-style:normal;font-weight:normal;font-size:40px;line-height:1.25;font-family:sans-serif;letter-spacing:0px;word-spacing:0px;fill:#000000;fill-opacity:1;stroke:none"
         id="flowRoot165"
         xml:space="preserve"><flowRegion
           id="flowRegion167"><rect
             y="433.89832"
             x="1291.5254"
             height="247.45763"
             width="376.27118"
             id="rect169" /></flowRegion><flowPara
           id="flowPara171" /></flowRoot><flowRoot
         style="font-style:normal;font-weight:normal;font-size:40px;line-height:1.25;font-family:sans-serif;letter-spacing:0px;word-spacing:0px;fill:#000000;fill-opacity:1;stroke:none"
         id="flowRoot173"
         xml:space="preserve"><flowRegion
           id="flowRegion175"><rect
             y="359.32202"
             x="-362.71185"
             height="200"
             width="2237.2881"
             id="rect177" /></flowRegion><flowPara
           id="flowPara179" /></flowRoot></g></g></svg>
